<svg width="0" height="0" class="hidden">
  <symbol xmlns="http://www.w3.org/2000/svg" viewBox="0 0 60 60" id="htmlacademy">
    <path fill="#2E368F" d="M30.2 5h-.2l-19.7 2.1v36.2l19.7 11.7 19.7-11.7v-36.2l-19.5-2.1zm17 36.8l-17.2 10.2-17.2-10.2v-14.8l17.1 10.2v1.8l-11.7-7v1.8l11.8 7.1v1.9l-11.8-7v1.8l11.8 7 11.9-7.1v-7.6l5.3-3.2v15.1zm-.1-17l-4.7 2.8-2.2 1.3-10.3-6.1v1.8l8.8 5.3h-.1l-.2.1-1.3.7-7.3-4.3v1.8l5.8 3.4-1.4.9-4.3-2.6v1.8l2.9 1.7-2.9 1.7-17-10.1 17-10.2 17.2 10zm.1-1.8l-17.3-10.2-17.1 10.2v-13.6l17.2-1.8 17.2 1.8v13.6z"></path>
  </symbol>
  <symbol fill="none" xmlns="http://www.w3.org/2000/svg" viewBox="0 0 23 23" id="icon-cross">
    <path d="M22.2 2.8L19.4 0L11.1 8.3L2.8 0L0 2.8L8.3 11.1L0 19.4L2.8 22.2L11.1 13.9L19.4 22.2L22.2 19.4L13.9 11.1L22.2 2.8Z" fill="white"></path>
  </symbol>
  <symbol fill="none" xmlns="http://www.w3.org/2000/svg" viewBox="0 0 23 21" id="icon-like">
    <path d="M12.9636 3.78L12.3364 6.825L11.7091 9.45H14.3227H20.8045V11.55C20.8045 11.55 20.8045 11.55 20.8045 11.655L17.7727 18.9H8.36364V8.4L12.9636 3.78ZM2.09091 10.5V18.9V10.5ZM13.8 0L6.9 6.93C6.48182 7.245 6.27273 7.77 6.27273 8.4V18.9C6.27273 20.055 7.21364 21 8.36364 21H17.7727C18.6091 21 19.3409 20.475 19.6545 19.74L22.7909 12.285C22.8955 12.075 22.8955 11.76 22.8955 11.55V9.45H23C23 8.295 22.0591 7.35 20.9091 7.35H14.3227L15.3682 2.52V2.205C15.3682 1.785 15.1591 1.365 14.95 1.05L13.8 0ZM4.18182 8.4H0V21H4.18182V8.4Z" fill="white"></path>
  </symbol>
  <symbol fill="none" xmlns="http://www.w3.org/2000/svg" viewBox="0 0 27 27" id="icon-map-marker">
    <path d="M13.5 27C20.9558 27 27 20.9558 27 13.5C27 6.04416 20.9558 0 13.5 0C6.04416 0 0 6.04416 0 13.5C0 20.9558 6.04416 27 13.5 27Z" fill="white"></path>
    <path d="M13.5 21.8996C18.1392 21.8996 21.9 18.1388 21.9 13.4996C21.9 8.86042 18.1392 5.09961 13.5 5.09961C8.86078 5.09961 5.09998 8.86042 5.09998 13.4996C5.09998 18.1388 8.86078 21.8996 13.5 21.8996Z" fill="#81B3D3"></path>
  </symbol>
  <symbol fill="none" xmlns="http://www.w3.org/2000/svg" viewBox="0 0 23 22" id="icon-menu">
    <path d="M22.9 0H0V4H22.9V0Z" fill="#81B3D2"></path>
    <path d="M22.9 9H0V13H22.9V9Z" fill="#81B3D2"></path>
    <path d="M22.9 18H0V22H22.9V18Z" fill="#81B3D2"></path>
  </symbol>
  <symbol fill="none" xmlns="http://www.w3.org/2000/svg" viewBox="0 0 22 18" id="icon-tg">
    <path d="M21.4393 1.62225L18.2705 16.566C18.0313 17.6205 17.408 17.883 16.5223 17.3865L11.6938 13.8285L9.36427 16.0695C9.10627 16.3275 8.89102 16.5428 8.39377 16.5428L8.74102 11.6258L17.6893 3.54C18.0785 3.1935 17.6045 3.00075 17.0848 3.348L6.02227 10.314L1.25977 8.823C0.224021 8.49975 0.205271 7.78725 1.47577 7.29L20.1035 0.113253C20.966 -0.209997 21.7205 0.305253 21.4393 1.623V1.62225Z" fill="white"></path>
  </symbol>
  <symbol fill="none" xmlns="http://www.w3.org/2000/svg" viewBox="0 0 24 14" id="icon-vk">
    <path fill-rule="evenodd" clip-rule="evenodd" d="M23.45 0.948C23.616 0.402 23.45 0 22.655 0H20.03C19.362 0 19.054 0.347 18.887 0.73C18.887 0.73 17.552 3.926 15.661 6.002C15.049 6.604 14.771 6.795 14.437 6.795C14.27 6.795 14.019 6.604 14.019 6.057V0.948C14.019 0.292 13.835 0 13.279 0H9.151C8.734 0 8.483 0.304 8.483 0.593C8.483 1.214 9.429 1.358 9.526 3.106V6.904C9.526 7.737 9.373 7.888 9.039 7.888C8.149 7.888 5.984 4.677 4.699 1.003C4.45 0.288 4.198 0 3.527 0H0.9C0.15 0 0 0.347 0 0.73C0 1.412 0.89 4.8 4.145 9.281C6.315 12.341 9.37 14 12.153 14C13.822 14 14.028 13.632 14.028 12.997V10.684C14.028 9.947 14.186 9.8 14.715 9.8C15.105 9.8 15.772 9.992 17.33 11.467C19.11 13.216 19.403 14 20.405 14H23.03C23.78 14 24.156 13.632 23.94 12.904C23.702 12.18 22.852 11.129 21.725 9.882C21.113 9.172 20.195 8.407 19.916 8.024C19.527 7.533 19.638 7.314 19.916 6.877C19.916 6.877 23.116 2.451 23.449 0.948H23.45Z" fill="white"></path>
  </symbol>
  <symbol fill="none" xmlns="http://www.w3.org/2000/svg" viewBox="0 0 20 14" id="icon-youtube">
    <path d="M17.1813 0H2.81331C1.30618 0 0 1.3 0 2.8V11.1C0 12.7 1.30618 14 2.81331 14H17.1813C18.7889 14 19.9946 12.7 19.9946 11.2V2.8C20.095 1.3 18.7889 0 17.1813 0ZM7.03326 10.4V3.6L13.8656 7L7.03326 10.4Z" fill="white"></path>
  </symbol>
  <symbol fill="none" xmlns="http://www.w3.org/2000/svg" viewBox="0 0 26 19" id="tick">
    <path d="M25.7699 1.55162L24.5333 0.263482C24.1961 -0.0878274 23.5217 -0.0878274 23.1844 0.263482L9.80772 14.1988L2.83834 6.93836C2.50111 6.58705 1.82665 6.58705 1.48942 6.93836L0.252921 8.22651C-0.084307 8.57782 -0.084307 9.28043 0.252921 9.63174L9.02086 18.7658C9.24568 19 9.47049 19 9.69531 19C9.92013 19 10.1449 18.8829 10.3698 18.7658L25.545 2.95686C26.1071 2.60555 26.1071 2.02003 25.7699 1.55162Z" fill="#333333"></path>
  </symbol>
</svg>
